<?xml version="1.0" encoding="UTF-8"?>
<svg id="AND_Footer_Logo" xmlns="http://www.w3.org/2000/svg" baseProfile="tiny" version="1.2" viewBox="0 0 113 79">
  <!-- Generator: Adobe Illustrator 30.2.1, SVG Export Plug-In . SVG Version: 2.1.1 Build 1)  -->
  <path d="M26.4,27.2l4.6,15.9h-9.9s5.3-15.9,5.3-15.9ZM105.2,38.8c0,4.4-.8,8.1-2.4,11.1s-3.8,5.3-6.6,6.8c-2.8,1.5-6.2,2.3-10,2.3h-16.3v7.9H0V0h69.9v20.3l12.6-.3h4.9c2.7,0,5.2.4,7.4,1.2,2.2.8,4.1,2,5.6,3.6,1.6,1.6,2.7,3.6,3.6,5.9.8,2.4,1.2,5.1,1.2,8.2v-.1ZM46.3,55.1l-3.2-1-12-34.2-8.2.2-12.7,33.9-3.3,1v4h14.5v-4l-4-1.1,1.8-5.4h13.1l1.7,5.4-3.8,1.1v4h15.9v-4l.2.1ZM74,25.4l-4.1-1.1v12.8h-10.3v-10.7h-5.9v10.7h-10.3v5.5h10.3v10.7h5.9v-10.7h10.3v12.5l4.1-1.2s0-28.5,0-28.5ZM96.7,39.3c0-2.9-.3-5.3-.8-7.1-.6-1.8-1.3-3.2-2.2-4.1-.9-.9-2-1.6-3.1-1.9s-2.2-.5-3.4-.5h-5.2v27.6h4.7c1.2,0,2.4-.2,3.6-.5,1.2-.4,2.3-1,3.2-2,1-1,1.8-2.4,2.4-4.2s.9-4.3.9-7.3h-.1Z" fill="#fff"/>
</svg>