<?xml version="1.0" encoding="UTF-8"?>
<svg id="AND_Header_Logo" xmlns="http://www.w3.org/2000/svg" baseProfile="tiny" version="1.2" viewBox="0 0 672 209">
  <!-- Generator: Adobe Illustrator 29.7.1, SVG Export Plug-In . SVG Version: 2.1.1 Build 8)  -->
  <path d="M367.5,97.6c-3-3.1-6.6-5.4-10.9-6.9-4.3-1.5-9-2.3-14.2-2.3h-9.4l-24.3.5V0H0v179.3h308.6v-15.3h31.5c7.4,0,13.9-1.5,19.4-4.5,5.5-3,9.7-7.3,12.8-13.1,3-5.8,4.6-12.9,4.6-21.5s-.8-11.4-2.4-15.9c-1.6-4.5-3.9-8.3-6.9-11.4ZM141,164h-30.8v-7.7l7.3-2.1-3.2-10.4h-25.3l-3.5,10.4,7.7,2.1v7.7h-28v-7.7l6.3-2,24.5-65.6,15.8-.4,23.1,66,6.1,2v7.7ZM176.4,163.1c-3.9,1.4-8.4,2.1-13.3,2.1s-5.9-.3-9.1-.8c-3.2-.5-6.5-1.2-9.8-2l.6-16.2h9.4l1,7.9c1.1.3,2.3.5,3.6.7,1.7.3,3.2.4,4.5.4,1.9,0,3.6-.2,5.2-.8,1.6-.5,2.9-1.2,4-2.2,1-1,1.6-2.2,1.6-3.7s-.7-3.1-2.1-4.1c-1.4-1-3.3-1.9-5.5-2.6-2.3-.7-4.6-1.5-7.1-2.3-2.5-.8-4.8-1.8-7.1-3.1-2.3-1.3-4.1-3-5.5-5.1-1.4-2.1-2.1-4.9-2.1-8.4s1-7.5,3.1-10.1c2.1-2.6,4.8-4.5,8.3-5.7,3.5-1.2,7.3-1.8,11.4-1.8s6,.3,9.3.8c3.3.5,6.7,1.3,10.1,2.3l-.5,14.4h-9.5l-1.3-6.6c-2.7-.6-5.1-1-7.2-1s-4.8.5-6.4,1.6c-1.6,1-2.4,2.5-2.4,4.3s.7,3,2.1,4c1.4,1,3.3,1.9,5.5,2.6,2.3.7,4.6,1.5,7.2,2.3,2.5.8,4.9,1.8,7.2,3.1,2.3,1.3,4.1,2.9,5.5,5,1.4,2.1,2.1,4.8,2.1,8s-1.1,7.8-3.4,10.6c-2.3,2.9-5.4,5-9.3,6.4ZM249.8,164h-17.4l-13.1-26.4h-8.6v16.5l6.9,2.2v7.7h-29v-7.7l7.1-2v-63.1l-7.1-2v-7.7l22.1-.9v47.1h8.7l7.7-11.7-5.6-1.1v-7.6l26.2-.9v7.6l-6,1.4-10.9,16.1,12.3,23.2,6.7,1.9v7.6ZM316.6,153.9l-7.9,2.3v-24.1h-19.8v20.7h-11.4v-20.7h-19.8v-10.7h19.8v-20.7h11.4v20.7h19.8v-24.7l7.9,2.2v55.1ZM358.6,139.9c-1.1,3.6-2.7,6.3-4.6,8.2-1.9,1.9-4,3.1-6.3,3.8-2.3.7-4.6,1-6.9,1h-9v-53.4h10.1c2.1,0,4.3.3,6.5,1,2.2.6,4.2,1.9,6,3.7,1.8,1.8,3.2,4.5,4.3,7.9,1.1,3.5,1.6,8,1.6,13.7s-.6,10.6-1.7,14.2ZM474.2,95.6c-1.6-1.5-2.4-3.6-2.4-6.4s.8-5.2,2.5-6.7c1.7-1.5,3.8-2.2,6.4-2.2s4.6.7,6.2,2.2c1.6,1.5,2.5,3.7,2.5,6.6s-.8,5.1-2.5,6.6c-1.7,1.5-3.8,2.2-6.3,2.2s-4.8-.8-6.4-2.3ZM102.6,102.4l8.8,30.7h-19.1l10.3-30.7ZM590,108.7c-3.5-2.2-8-3.3-13.6-3.3s-10.7,1.3-14.9,3.8c-4.2,2.5-7.5,6.1-9.8,10.7-2.3,4.6-3.5,10.1-3.5,16.6s1.1,11.5,3.3,15.8c2.2,4.3,5.2,7.6,9.2,9.8,3.9,2.2,8.5,3.3,13.7,3.3s8.3-.7,12.6-2.1c4.3-1.4,8.6-3.5,12.7-6.4l-5-8c-3.1,1.8-6,3.1-8.8,4-2.8.9-5.5,1.3-7.9,1.3s-6.2-.9-8.3-2.6c-2.1-1.7-3.6-4.1-4.6-7.1-.6-1.9-1-4-1.2-6.2h35.7c.2-1.4.4-2.6.5-3.9.1-1.2.2-2.4.2-3.6,0-4.8-.8-9.1-2.5-12.9-1.6-3.8-4.2-6.8-7.7-9.1ZM563.9,129.3c.2-1.5.5-2.9.8-4.2.8-2.7,2-4.9,3.7-6.5,1.7-1.6,4-2.4,6.8-2.4s4.3.6,5.7,1.8c1.4,1.2,2.4,2.9,3,5.1.5,1.8.8,3.9.8,6.2h-20.8ZM551.5,113.9l-4.6,2-17.1,48.3h-17.6l-15.2-48.1-4.7-1.2v-7.7l26.3-.9v7.6l-6.4,1.9,10,36.8,11.2-36.5-6.1-1.3v-7.7l24.2-.9v7.6ZM647.8,106.5l-1,19.8h-8.7l-1.2-8.9c-.1,0-.2,0-.3,0-.5,0-.9-.1-1.3-.1-2.2,0-4.4.7-6.6,2-1.7,1-3.1,2.3-4.5,3.8v31.1l8.9,2.1v7.7h-31.1v-7.7l7.2-2v-37.3l-7.2-2.2v-7.7l18.9-.9,1.6,8.2c2.7-2.6,5.4-4.7,8-6.2,3.1-1.8,6.5-2.7,10.1-2.7s4.7.4,7.3,1.1ZM420.8,108.7c-3.5-2.2-8-3.3-13.6-3.3s-10.7,1.3-14.9,3.8c-4.2,2.5-7.5,6.1-9.8,10.7-2.3,4.6-3.5,10.1-3.5,16.6s1.1,11.5,3.3,15.8c2.2,4.3,5.2,7.6,9.2,9.8,3.9,2.2,8.5,3.3,13.7,3.3s8.3-.7,12.6-2.1c4.3-1.4,8.6-3.5,12.7-6.4l-5-8c-3.1,1.8-6,3.1-8.8,4-2.8.9-5.5,1.3-7.9,1.3s-6.2-.9-8.3-2.6c-2.1-1.7-3.6-4.1-4.6-7.1-.6-1.9-1-4-1.2-6.2h35.7c.2-1.4.4-2.6.5-3.9.1-1.2.2-2.4.2-3.6,0-4.8-.8-9.1-2.5-12.9-1.6-3.8-4.2-6.8-7.7-9.1ZM394.7,129.3c.2-1.5.5-2.9.8-4.2.8-2.7,2-4.9,3.7-6.5,1.7-1.6,4-2.4,6.8-2.4s4.3.6,5.7,1.8c1.4,1.2,2.4,2.9,3,5.1.5,1.8.8,3.9.8,6.2h-20.8ZM455.3,154.2l7.2,2.1v7.7h-29.3v-7.7l7.1-2v-63.1l-7.1-2v-7.7l22.1-.9v73.7ZM488.6,154.2l7.2,2.1v7.7h-29.4v-7.7l7.2-2.1v-37.5l-7.2-2v-7.7l22.2-.8v47.9Z"/>
</svg>